<svg width="96" height="96" xmlns="http://www.w3.org/2000/svg" xmlns:xlink="http://www.w3.org/1999/xlink" overflow="hidden"><defs><clipPath id="clip0"><rect x="930" y="274" width="96" height="96"/></clipPath></defs><g clip-path="url(#clip0)" transform="translate(-930 -274)"><path d="M998 304.2C995.6 304.2 993.6 302.2 993.7 299.7 993.7 297.3 995.7 295.3 998.1 295.3 1000.5 295.3 1002.5 297.3 1002.5 299.7 1002.5 300.9 1002 302 1001.2 302.8 1000.3 303.7 999.2 304.2 998 304.2ZM993.7 290.3C991.5 291.1 989.8 292.8 988.7 294.8 987.3 297.5 987.1 300.6 988.2 303.4L993 313.8 996.2 320.4C996.5 321.1 997.2 321.5 998 321.5 998.8 321.5 999.5 321.1 999.8 320.4L1003 313.8 1007.8 303.5C1008.3 302.3 1008.5 301 1008.5 299.7 1008.5 292.7 1001.3 287.4 993.7 290.3Z"/><path d="M976 346.8 960 338.8 960 306.2 976 314.2 976 346.8ZM956 338.8 944 344.8 944 312.2 956 306.2 956 338.8ZM1011.4 305.2 1011.4 305.2 1008.9 310.6 1012 312.2 1012 344.8 1000 338.8 1000 325.5 996 325.5 996 338.8 980 346.8 980 314.2 987.1 310.6 984.6 305.2 978 308.5 958 298.5 938 308.5 938 354.5 958 344.5 978 354.5 998 344.5 1018 354.5 1018 308.5 1011.4 305.2Z"/></g></svg>