<svg width="96" height="96" xmlns="http://www.w3.org/2000/svg" xmlns:xlink="http://www.w3.org/1999/xlink" overflow="hidden"><defs><clipPath id="clip0"><rect x="592" y="277" width="96" height="96"/></clipPath></defs><g clip-path="url(#clip0)" transform="translate(-592 -277)"><path d="M600 297 600 353 680 353 680 297 600 297ZM641.4 331.9C640.6 332.7 639.4 332.7 638.6 331.9L609 303 671.1 303 641.4 331.9ZM625.5 324.7 606 344.3 606 305.6 625.5 324.7ZM628.4 327.5 635.9 334.8C637.1 335.9 638.6 336.5 640.1 336.5 641.6 336.5 643.1 335.9 644.3 334.8L651.8 327.5 671.2 347 608.9 347 628.4 327.5ZM654.5 324.7 674 305.7 674 344.2 654.5 324.7Z"/></g></svg>