<svg width="151" height="134" viewBox="0 0 151 134" fill="none" xmlns="http://www.w3.org/2000/svg">
<path d="M67.1138 9.15527e-05C30.0491 9.15527e-05 0.000488281 30.047 0.000488281 67.112C0.000488281 104.177 30.0481 134.224 67.1138 134.224C93.6504 134.222 117.693 118.586 128.456 94.331H121.689C110.915 115.977 88.3873 129.231 64.2328 128.139C30.5281 126.548 4.49358 97.935 6.08461 64.23C7.67664 30.526 36.2902 4.493 69.9949 6.0845C92.0883 7.1587 111.875 20.09 121.728 39.893H128.456C117.693 15.6387 93.6504 0.00219155 67.1138 9.15527e-05Z" fill="url(#paint0_linear_1_25)"/>
<path d="M135.903 71.19C127.695 71.19 121.041 68.682 121.041 65.588C121.041 62.493 127.695 59.985 135.903 59.985C144.111 59.985 150.766 62.493 150.766 65.588C150.766 68.682 144.111 71.19 135.903 71.19Z" fill="#01913A"/>
<defs>
<linearGradient id="paint0_linear_1_25" x1="0.000488281" y1="67.112" x2="134.228" y2="67.112" gradientUnits="userSpaceOnUse">
<stop stop-color="#00FF10"/>
<stop offset="0.216028" stop-color="#01913A"/>
<stop offset="1" stop-color="#01913A"/>
</linearGradient>
</defs>
</svg>
